<svg xmlns="http://www.w3.org/2000/svg" width="1200" height="780" viewBox="0 0 1200 780" role="img" aria-label="Mockup postavki naloga">
  <defs>
    <linearGradient id="bg" x1="0" y1="0" x2="1" y2="1">
      <stop offset="0%" stop-color="#f4f7fb"/>
      <stop offset="100%" stop-color="#e8edf5"/>
    </linearGradient>
    <filter id="shadow" x="-20%" y="-20%" width="140%" height="140%">
      <feDropShadow dx="0" dy="8" stdDeviation="10" flood-color="#9aa7bd" flood-opacity="0.25"/>
    </filter>
  </defs>

  <rect width="1200" height="780" fill="url(#bg)"/>

  <rect x="120" y="70" width="960" height="640" rx="18" fill="#ffffff" filter="url(#shadow)"/>
  <rect x="120" y="70" width="960" height="84" rx="18" fill="#1f3b57"/>
  <text x="165" y="122" fill="#ffffff" font-family="Segoe UI, Arial, sans-serif" font-size="30" font-weight="700">MOJ NALOG</text>

  <rect x="160" y="176" width="180" height="42" rx="10" fill="#e8f0fb"/>
  <text x="203" y="203" fill="#294a6b" font-family="Segoe UI, Arial, sans-serif" font-size="18" font-weight="600">Profil</text>

  <rect x="350" y="176" width="230" height="42" rx="10" fill="#1f3b57"/>
  <text x="392" y="203" fill="#ffffff" font-family="Segoe UI, Arial, sans-serif" font-size="18" font-weight="600">Postavke naloga</text>

  <rect x="590" y="176" width="190" height="42" rx="10" fill="#eef2f7"/>
  <text x="623" y="203" fill="#4a5f78" font-family="Segoe UI, Arial, sans-serif" font-size="18" font-weight="600">Obavjestenja</text>

  <text x="170" y="270" fill="#1c2d3f" font-family="Segoe UI, Arial, sans-serif" font-size="28" font-weight="700">Postavke naloga</text>

  <text x="170" y="320" fill="#32475d" font-family="Segoe UI, Arial, sans-serif" font-size="20" font-weight="700">Osnovni podaci</text>

  <text x="170" y="360" fill="#607388" font-family="Segoe UI, Arial, sans-serif" font-size="16" font-weight="600">Korisnicko ime</text>
  <rect x="170" y="372" width="420" height="48" rx="8" fill="#f9fbfd" stroke="#c7d3e2"/>
  <text x="188" y="403" fill="#6b7f95" font-family="Segoe UI, Arial, sans-serif" font-size="16">john_doe</text>

  <text x="170" y="455" fill="#607388" font-family="Segoe UI, Arial, sans-serif" font-size="16" font-weight="600">Email</text>
  <rect x="170" y="467" width="420" height="48" rx="8" fill="#f9fbfd" stroke="#c7d3e2"/>
  <text x="188" y="498" fill="#6b7f95" font-family="Segoe UI, Arial, sans-serif" font-size="16">john@email.com</text>

  <rect x="170" y="540" width="190" height="46" rx="10" fill="#2f6fa5"/>
  <text x="205" y="569" fill="#ffffff" font-family="Segoe UI, Arial, sans-serif" font-size="16" font-weight="700">Sacuvaj promjene</text>

  <line x1="640" y1="320" x2="640" y2="600" stroke="#e2e8f0" stroke-width="2"/>

  <text x="690" y="320" fill="#32475d" font-family="Segoe UI, Arial, sans-serif" font-size="20" font-weight="700">Sigurnost</text>

  <text x="690" y="360" fill="#607388" font-family="Segoe UI, Arial, sans-serif" font-size="16" font-weight="600">Trenutna lozinka</text>
  <rect x="690" y="372" width="340" height="48" rx="8" fill="#f9fbfd" stroke="#c7d3e2"/>
  <text x="708" y="403" fill="#9aabbd" font-family="Segoe UI, Arial, sans-serif" font-size="22">************</text>

  <text x="690" y="455" fill="#607388" font-family="Segoe UI, Arial, sans-serif" font-size="16" font-weight="600">Nova lozinka</text>
  <rect x="690" y="467" width="340" height="48" rx="8" fill="#f9fbfd" stroke="#c7d3e2"/>
  <text x="708" y="498" fill="#9aabbd" font-family="Segoe UI, Arial, sans-serif" font-size="22">************</text>

  <text x="690" y="550" fill="#607388" font-family="Segoe UI, Arial, sans-serif" font-size="16" font-weight="600">Potvrdi lozinku</text>
  <rect x="690" y="562" width="340" height="48" rx="8" fill="#f9fbfd" stroke="#c7d3e2"/>
  <text x="708" y="593" fill="#9aabbd" font-family="Segoe UI, Arial, sans-serif" font-size="22">************</text>

  <rect x="840" y="630" width="190" height="46" rx="10" fill="#1f3b57"/>
  <text x="864" y="659" fill="#ffffff" font-family="Segoe UI, Arial, sans-serif" font-size="16" font-weight="700">Promijeni lozinku</text>
</svg>
